<svg class="colorable-icon reset-top-left-margin" xmlns="http://www.w3.org/2000/svg" aria-hidden="true" data-prefix="fal" data-icon="signal-bars" viewBox="-1 -1 642 514" data-export-recolorable-svg="true" overflow="visible" xmlns:xlink="http://www.w3.org/1999/xlink" fill="rgb(0, 0, 0)" stroke="none"><path fill="url(&quot;#theme-accent-gradient-linear&quot;) rgb(73, 80, 188)" d="M576 464V48c0-8.8-7.2-16-16-16s-16 7.2-16 16V464c0 8.8 7.2 16 16 16s16-7.2 16-16zM512 48c0-26.5 21.5-48 48-48s48 21.5 48 48V464c0 26.5-21.5 48-48 48s-48-21.5-48-48V48zM416 176c0-8.8-7.2-16-16-16s-16 7.2-16 16V464c0 8.8 7.2 16 16 16s16-7.2 16-16V176zm-64 0c0-26.5 21.5-48 48-48s48 21.5 48 48V464c0 26.5-21.5 48-48 48s-48-21.5-48-48V176zM256 464V304c0-8.8-7.2-16-16-16s-16 7.2-16 16V464c0 8.8 7.2 16 16 16s16-7.2 16-16zM240 256c26.5 0 48 21.5 48 48V464c0 26.5-21.5 48-48 48s-48-21.5-48-48V304c0-26.5 21.5-48 48-48zM96 432c0-8.8-7.2-16-16-16s-16 7.2-16 16v32c0 8.8 7.2 16 16 16s16-7.2 16-16V432zm-64 0c0-26.5 21.5-48 48-48s48 21.5 48 48v32c0 26.5-21.5 48-48 48s-48-21.5-48-48V432z" stroke="none"/></svg>