<svg class="colorable-icon reset-top-left-margin" xmlns="http://www.w3.org/2000/svg" aria-hidden="true" data-prefix="fal" data-icon="text" viewBox="-1 -1 450 514" data-export-recolorable-svg="true" overflow="visible" xmlns:xlink="http://www.w3.org/1999/xlink" fill="rgb(0, 0, 0)" stroke="none"><path fill="url(&quot;#theme-accent-gradient-linear&quot;) rgb(29, 29, 27)" d="M0 64C0 46.3 14.3 32 32 32H416c17.7 0 32 14.3 32 32v48c0 8.8-7.2 16-16 16s-16-7.2-16-16V64H240l0 384h64c8.8 0 16 7.2 16 16s-7.2 16-16 16H144c-8.8 0-16-7.2-16-16s7.2-16 16-16h64l0-384H32v48c0 8.8-7.2 16-16 16s-16-7.2-16-16V64z" stroke="none"/></svg>